<?xml version="1.0" encoding="UTF-8"?>
<svg width="384" height="362.67" version="1.1" viewBox="0 0 384 362.67" xml:space="preserve" xmlns="http://www.w3.org/2000/svg" xmlns:cc="http://creativecommons.org/ns#" xmlns:dc="http://purl.org/dc/elements/1.1/" xmlns:rdf="http://www.w3.org/1999/02/22-rdf-syntax-ns#"><metadata><rdf:RDF><cc:Work rdf:about=""><dc:format>image/svg+xml</dc:format><dc:type rdf:resource="http://purl.org/dc/dcmitype/StillImage"/><dc:title/></cc:Work></rdf:RDF></metadata>
<g transform="translate(0 -149.33)">
	
		
			
			
			
			<path d="m192 512c-100.49 0-192-40.677-192-85.333 0-40.245 31.339-47.484 64.125-52.094-9e-3 -0.182-0.125-0.337-0.125-0.521v-86.052c0-28.646-5.104-84.917-8.979-99.99-1.125-2.146-1.688-4.385-1.688-6.677 0-27.844 86.875-32 138.67-32s138.67 4.156 138.67 32c0 2.292-0.563 4.531-1.688 6.677-3.875 15.073-8.979 71.344-8.979 99.99v86.052c0 0.184-0.116 0.339-0.125 0.521 32.786 4.609 64.125 11.849 64.125 52.093 0 44.657-91.51 85.334-192 85.334zm106.67-120.85c-17.707 6.657-50.142 14.184-106.67 14.184-56.542 0-88.966-7.522-106.67-14.178v24.085c0 4.833 1.802 8.656 3.583 9.938 11.865 8.531 41.031 22.823 103.08 22.823s91.219-14.292 103.07-22.813c1.792-1.292 3.594-5.115 3.594-9.948v-24.091z"/>
		
	
</g>















</svg>
